toy_leg_sim_states
version=1
nRows=31
nColumns=17
inDegrees=yes

# SIMM Motion File Header:
name toy_leg_sim_states
datacolumns 17
datarows 31
otherdata 1
range 4.76659496 4.81426890
endheader
time	/jointset/ground_block/xRotation/value	/jointset/ground_block/xRotation/speed	/jointset/ground_block/yRotation/value	/jointset/ground_block/yRotation/speed	/jointset/ground_block/zRotation/value	/jointset/ground_block/zRotation/speed	/jointset/ground_block/xTranslation/value	/jointset/ground_block/xTranslation/speed	/jointset/ground_block/yTranslation/value	/jointset/ground_block/yTranslation/speed	/jointset/ground_block/zTranslation/value	/jointset/ground_block/zTranslation/speed	/jointset/pin1/pin1_rot/value	/jointset/pin1/pin1_rot/speed	/jointset/pin2/pin2_rot/value	/jointset/pin2/pin2_rot/speed
      4.76659496	      0.00000000	      0.00000000	      0.00000000	      0.00000000	   -111.58509679	    -55.76082387	      1.48989078	      0.69610180	     -0.71776775	     -0.12787147	      0.00000000	      0.00000000	    -10.69481020	     38.76916009	    -57.76337939	    110.57881763
      4.76818410	      0.00000000	      0.00000000	      0.00000000	      0.00000000	   -111.67395165	    -56.06714906	      1.49099244	      0.69038566	     -0.71797589	     -0.13406708	      0.00000000	      0.00000000	    -10.63385840	     37.94390883	    -57.58682229	    111.61886662
      4.76977323	      0.00000000	      0.00000000	      0.00000000	      0.00000000	   -111.76329206	    -56.37192185	      1.49208498	      0.68460786	     -0.71819380	     -0.14016952	      0.00000000	      0.00000000	    -10.57420946	     37.12950255	    -57.40863218	    112.63387231
      4.77136236	      0.00000000	      0.00000000	      0.00000000	      0.00000000	   -111.85311559	    -56.67517754	      1.49316828	      0.67876810	     -0.71842133	     -0.14617808	      0.00000000	      0.00000000	    -10.51584596	     36.32618267	    -57.22884909	    113.62354438
      4.77295149	      0.00000000	      0.00000000	      0.00000000	      0.00000000	   -111.94341985	    -56.97695083	      1.49424225	      0.67286610	     -0.71865834	     -0.15209212	      0.00000000	      0.00000000	    -10.45875009	     35.53418753	    -57.04751352	    114.58759472
      4.77454062	      0.00000000	      0.00000000	      0.00000000	      0.00000000	   -112.03420251	    -57.27727581	      1.49530679	      0.66690161	     -0.71890467	     -0.15791099	      0.00000000	      0.00000000	    -10.40290366	     34.75375170	    -56.86466640	    115.52573799
      4.77612975	      0.00000000	      0.00000000	      0.00000000	      0.00000000	   -112.12546129	    -57.57618595	      1.49636180	      0.66087442	     -0.71916018	     -0.16363411	      0.00000000	      0.00000000	    -10.34828812	     33.98510573	    -56.68034912	    116.43769169
      4.77771888	      0.00000000	      0.00000000	      0.00000000	      0.00000000	   -112.21719399	    -57.87371410	      1.49740719	      0.65478432	     -0.71942470	     -0.16926090	      0.00000000	      0.00000000	    -10.29488455	     33.22847634	    -56.49460354	    117.32317542
      4.77930801	      0.00000000	      0.00000000	      0.00000000	      0.00000000	   -112.30939841	    -58.16989248	      1.49844285	      0.64863112	     -0.71969808	     -0.17479083	      0.00000000	      0.00000000	    -10.24267369	     32.48408693	    -56.30747193	    118.18190976
      4.78089714	      0.00000000	      0.00000000	      0.00000000	      0.00000000	   -112.40207245	    -58.46475265	      1.49946868	      0.64241466	     -0.71998018	     -0.18022338	      0.00000000	      0.00000000	    -10.19163591	     31.75215839	    -56.11899702	    119.01361481
      4.78248628	      0.00000000	      0.00000000	      0.00000000	      0.00000000	   -112.49521404	    -58.75832552	      1.50048458	      0.63613482	     -0.72027083	     -0.18555808	      0.00000000	      0.00000000	    -10.14175122	     31.03291005	    -55.92922200	    119.81800864
      4.78407541	      0.00000000	      0.00000000	      0.00000000	      0.00000000	   -112.58882115	    -59.05064134	      1.50149045	      0.62979148	     -0.72056988	     -0.19079448	      0.00000000	      0.00000000	    -10.09299931	     30.32656050	    -55.73819048	    120.59480602
      4.78566454	      0.00000000	      0.00000000	      0.00000000	      0.00000000	   -112.68289181	    -59.34172968	      1.50248619	      0.62338456	     -0.72087717	     -0.19593216	      0.00000000	      0.00000000	    -10.04535950	     29.63332843	    -55.54594656	    121.34371743
      4.78725367	      0.00000000	      0.00000000	      0.00000000	      0.00000000	   -112.77742409	    -59.63161941	      1.50347170	      0.61691400	     -0.72119255	     -0.20097073	      0.00000000	      0.00000000	     -9.99881078	     28.95343302	    -55.35253477	    122.06444864
      4.78884280	      0.00000000	      0.00000000	      0.00000000	      0.00000000	   -112.87241610	    -59.92033873	      1.50444687	      0.61037977	     -0.72151586	     -0.20590983	      0.00000000	      0.00000000	     -9.95333178	     28.28709408	    -55.15800014	    122.75670082
      4.79043193	      0.00000000	      0.00000000	      0.00000000	      0.00000000	   -112.96786602	    -60.20791512	      1.50541161	      0.60378188	     -0.72184694	     -0.21074914	      0.00000000	      0.00000000	     -9.90890077	     27.63453188	    -54.96238817	    123.42017120
      4.79202106	      0.00000000	      0.00000000	      0.00000000	      0.00000000	   -113.06377205	    -60.49437533	      1.50636582	      0.59712033	     -0.72218562	     -0.21548835	      0.00000000	      0.00000000	     -9.86549569	     26.99596663	    -54.76574484	    124.05455409
      4.79361019	      0.00000000	      0.00000000	      0.00000000	      0.00000000	   -113.16013243	    -60.77974539	      1.50730939	      0.59039519	     -0.72253176	     -0.22012720	      0.00000000	      0.00000000	     -9.82309413	     26.37161772	    -54.56811661	    124.65954222
      4.79519932	      0.00000000	      0.00000000	      0.00000000	      0.00000000	   -113.25694545	    -61.06405061	      1.50824222	      0.58360653	     -0.72288519	     -0.22466545	      0.00000000	      0.00000000	     -9.78167332	     25.76170299	    -54.36955045	    125.23482804
      4.79678845	      0.00000000	      0.00000000	      0.00000000	      0.00000000	   -113.35420944	    -61.34731553	      1.50916421	      0.57675445	     -0.72324576	     -0.22910290	      0.00000000	      0.00000000	     -9.74121014	     25.16643783	    -54.17009380	    125.78010498
      4.79837759	      0.00000000	      0.00000000	      0.00000000	      0.00000000	   -113.45192276	    -61.62956394	      1.51007526	      0.56983909	     -0.72361329	     -0.23343936	      0.00000000	      0.00000000	     -9.70168116	     24.58603458	    -53.96979459	    126.29506835
      4.79996672	      0.00000000	      0.00000000	      0.00000000	      0.00000000	   -113.55008382	    -61.91081885	      1.51097527	      0.56286059	     -0.72398764	     -0.23767470	      0.00000000	      0.00000000	     -9.66306258	     24.02070205	    -53.76870124	    126.77941590
      4.80155585	      0.00000000	      0.00000000	      0.00000000	      0.00000000	   -113.64869105	    -62.19110252	      1.51186415	      0.55581914	     -0.72436863	     -0.24180880	      0.00000000	      0.00000000	     -9.62533029	     23.47064531	    -53.56686264	    127.23284785
      4.80314498	      0.00000000	      0.00000000	      0.00000000	      0.00000000	   -113.74774294	    -62.47043642	      1.51274178	      0.54871493	     -0.72475612	     -0.24584158	      0.00000000	      0.00000000	     -9.58845986	     22.93606578	    -53.36432815	    127.65506668
      4.80473411	      0.00000000	      0.00000000	      0.00000000	      0.00000000	   -113.84723798	    -62.74884120	      1.51360808	      0.54154821	     -0.72514993	     -0.24977298	      0.00000000	      0.00000000	     -9.55242654	     22.41716151	    -53.16114762	    128.04577645
      4.80632324	      0.00000000	      0.00000000	      0.00000000	      0.00000000	   -113.94717472	    -63.02633674	      1.51446293	      0.53431921	     -0.72554991	     -0.25360299	      0.00000000	      0.00000000	     -9.51720525	     21.91412765	    -52.95737136	    128.40468205
      4.80791237	      0.00000000	      0.00000000	      0.00000000	      0.00000000	   -114.04755173	    -63.30294210	      1.51530625	      0.52702824	     -0.72595590	     -0.25733160	      0.00000000	      0.00000000	     -9.48277063	     21.42715697	    -52.75305014	    128.73148838
      4.80950150	      0.00000000	      0.00000000	      0.00000000	      0.00000000	   -114.14836761	    -63.57867553	      1.51613794	      0.51967558	     -0.72636773	     -0.26095887	      0.00000000	      0.00000000	     -9.44909699	     20.95644038	    -52.54823522	    129.02589968
      4.81109063	      0.00000000	      0.00000000	      0.00000000	      0.00000000	   -114.24962098	    -63.85355444	      1.51695789	      0.51226158	     -0.72678524	     -0.26448486	      0.00000000	      0.00000000	     -9.41615836	     20.50216729	    -52.34297830	    129.28761908
      4.81267977	      0.00000000	      0.00000000	      0.00000000	      0.00000000	   -114.35131050	    -64.12759541	      1.51776601	      0.50478660	     -0.72720828	     -0.26790966	      0.00000000	      0.00000000	     -9.38392845	     20.06452586	    -52.13733159	    129.51634857
      4.81426890	      0.00000000	      0.00000000	      0.00000000	      0.00000000	   -114.45343485	    -64.40081418	      1.51856220	      0.49725102	     -0.72763668	     -0.27123341	      0.00000000	      0.00000000	     -9.35238068	     19.64370292	    -51.93134775	    129.71178925
